<svg width="32" height="33" viewBox="0 0 32 33" fill="none" xmlns="http://www.w3.org/2000/svg">
<path d="M8.44128 11.1667H23.5599C23.9444 11.1667 24.3244 11.2498 24.6738 11.4103C25.0231 11.5709 25.3336 11.8051 25.584 12.0969C25.8344 12.3887 26.0187 12.7312 26.1243 13.1009C26.23 13.4706 26.2544 13.8587 26.1959 14.2387L24.5226 25.1081C24.3773 26.0527 23.8987 26.914 23.1733 27.5362C22.4479 28.1584 21.5236 28.5004 20.5679 28.5001H11.4319C10.4765 28.5 9.55258 28.158 8.82745 27.5358C8.10232 26.9136 7.62384 26.0524 7.47861 25.1081L5.80528 14.2387C5.74684 13.8587 5.77126 13.4706 5.87688 13.1009C5.98251 12.7312 6.16683 12.3887 6.4172 12.0969C6.66758 11.8051 6.9781 11.5709 7.32747 11.4103C7.67683 11.2498 8.05679 11.1667 8.44128 11.1667Z" stroke="#2E2E2E" stroke-width="2" stroke-linecap="round" stroke-linejoin="round"/>
<path d="M12 15.1667V8.5C12 7.43913 12.4214 6.42172 13.1716 5.67157C13.9217 4.92143 14.9391 4.5 16 4.5C17.0609 4.5 18.0783 4.92143 18.8284 5.67157C19.5786 6.42172 20 7.43913 20 8.5V15.1667" stroke="#2E2E2E" stroke-width="2" stroke-linecap="round" stroke-linejoin="round"/>
</svg>
