<svg width="183" height="50" viewBox="0 0 183 50" fill="none" xmlns="http://www.w3.org/2000/svg">
<path d="M48.2237 38.5194H42.3313L48.9701 18.4067H56.4338L63.0726 38.5194H57.1802L52.7805 23.9455H52.6234L48.2237 38.5194ZM47.1238 30.5843H58.2015V34.6697H47.1238V30.5843Z" fill="white"/>
<path d="M37.5322 25.0455C37.4471 24.6985 37.3128 24.3941 37.1295 24.1322C36.9462 23.8638 36.7171 23.6379 36.4421 23.4546C36.1736 23.2647 35.8594 23.124 35.4993 23.0323C35.1457 22.9341 34.7562 22.885 34.3306 22.885C33.414 22.885 32.6316 23.1043 31.9835 23.543C31.3419 23.9816 30.8508 24.6134 30.5104 25.4384C30.1765 26.2633 30.0095 27.2585 30.0095 28.4239C30.0095 29.6023 30.1699 30.6106 30.4907 31.4486C30.8115 32.2867 31.2895 32.9283 31.9246 33.3735C32.5596 33.8187 33.3486 34.0413 34.2913 34.0413C35.1228 34.0413 35.8135 33.9202 36.3635 33.6779C36.92 33.4357 37.3358 33.092 37.6107 32.6468C37.8857 32.2015 38.0232 31.6778 38.0232 31.0754L38.966 31.1736H34.3699V27.2847H43.2871V30.0737C43.2871 31.9069 42.8975 33.475 42.1184 34.7778C41.3459 36.0742 40.2787 37.0693 38.9169 37.7633C37.5616 38.4508 36.0067 38.7945 34.2521 38.7945C32.2945 38.7945 30.5759 38.3788 29.0962 37.5473C27.6165 36.7158 26.461 35.5308 25.6295 33.9922C24.8046 32.4536 24.3921 30.6237 24.3921 28.5024C24.3921 26.8395 24.6442 25.3663 25.1483 24.0831C25.659 22.7999 26.366 21.7163 27.2696 20.8325C28.1731 19.9421 29.2173 19.271 30.4024 18.8192C31.5874 18.3609 32.8575 18.1318 34.2128 18.1318C35.4044 18.1318 36.5108 18.302 37.5322 18.6425C38.5601 18.9764 39.4668 19.4543 40.2525 20.0763C41.0447 20.6917 41.683 21.4217 42.1675 22.2663C42.652 23.1109 42.9466 24.0373 43.0514 25.0455H37.5322Z" fill="white"/>
<path d="M8.21021 38.5194V18.4067H16.931C18.463 18.4067 19.7495 18.6129 20.7905 19.0254C21.838 19.4378 22.627 20.0205 23.1573 20.7735C23.6942 21.5264 23.9626 22.4135 23.9626 23.4349C23.9626 24.1747 23.7989 24.849 23.4716 25.4579C23.1507 26.0668 22.699 26.5775 22.1163 26.99C21.5336 27.3959 20.8527 27.6774 20.0736 27.8345V28.031C20.9378 28.0637 21.7235 28.283 22.4306 28.6889C23.1377 29.0883 23.7007 29.6415 24.1197 30.3486C24.5387 31.0492 24.7482 31.8741 24.7482 32.8234C24.7482 33.9234 24.4602 34.9022 23.884 35.7598C23.3144 36.6175 22.5026 37.2919 21.4485 37.7829C20.3944 38.2739 19.1374 38.5194 17.6773 38.5194H8.21021ZM13.6705 34.1591H16.2239C17.1405 34.1591 17.8279 33.9888 18.2862 33.6484C18.7445 33.3014 18.9737 32.7907 18.9737 32.1164C18.9737 31.645 18.8657 31.2456 18.6496 30.9182C18.4335 30.5909 18.1258 30.3421 17.7265 30.1719C17.3336 30.0016 16.859 29.9165 16.3025 29.9165H13.6705V34.1591ZM13.6705 26.5382H15.9096C16.3876 26.5382 16.8099 26.4629 17.1765 26.3123C17.5431 26.1617 17.8279 25.9457 18.0309 25.6642C18.2404 25.3761 18.3452 25.0258 18.3452 24.6134C18.3452 23.9914 18.1226 23.5167 17.6773 23.1894C17.2321 22.8554 16.6691 22.6885 15.9882 22.6885H13.6705V26.5382Z" fill="white"/>
<path fill-rule="evenodd" clip-rule="evenodd" d="M0 0L30.6181 0V14.8152H28.6427V1.97536L1.97536 1.97536L1.97536 47.4087H19.7536V42.4703H21.729V49.384H0L0 0Z" fill="white"/>
<path d="M180.368 23.4349C180.25 22.4398 179.772 21.6672 178.934 21.1173C178.096 20.5673 177.068 20.2923 175.851 20.2923C174.96 20.2923 174.181 20.4364 173.513 20.7244C172.852 21.0125 172.335 21.4086 171.962 21.9127C171.595 22.4169 171.412 22.9897 171.412 23.6314C171.412 24.1682 171.539 24.6298 171.795 25.0161C172.056 25.3958 172.39 25.7133 172.796 25.9687C173.202 26.2175 173.628 26.4237 174.073 26.5874C174.518 26.7445 174.927 26.8722 175.301 26.9704L177.343 27.5204C177.867 27.6578 178.45 27.8477 179.091 28.09C179.74 28.3322 180.358 28.6628 180.947 29.0818C181.543 29.4943 182.034 30.0246 182.421 30.6728C182.807 31.321 183 32.1164 183 33.0592C183 34.146 182.715 35.1281 182.146 36.0054C181.583 36.8827 180.758 37.58 179.671 38.0972C178.59 38.6145 177.278 38.8731 175.733 38.8731C174.292 38.8731 173.045 38.6406 171.991 38.1758C170.943 37.711 170.119 37.0628 169.516 36.2313C168.92 35.3998 168.583 34.4341 168.505 33.3342H171.019C171.084 34.0937 171.34 34.7222 171.785 35.2198C172.236 35.7108 172.806 36.0774 173.494 36.3197C174.188 36.5554 174.934 36.6732 175.733 36.6732C176.662 36.6732 177.497 36.5226 178.237 36.2215C178.977 35.9138 179.563 35.4882 179.995 34.9448C180.427 34.3948 180.643 33.7532 180.643 33.0199C180.643 32.3521 180.456 31.8087 180.083 31.3897C179.71 30.9707 179.219 30.6302 178.61 30.3684C178.001 30.1065 177.343 29.8773 176.636 29.6809L174.161 28.9738C172.59 28.5221 171.346 27.8772 170.429 27.0391C169.513 26.2011 169.055 25.1045 169.055 23.7492C169.055 22.6231 169.359 21.641 169.968 20.803C170.583 19.9584 171.408 19.3037 172.443 18.8389C173.484 18.3675 174.646 18.1318 175.929 18.1318C177.225 18.1318 178.378 18.3642 179.386 18.829C180.394 19.2873 181.193 19.9159 181.782 20.7146C182.378 21.5134 182.692 22.4201 182.725 23.4349H180.368Z" fill="white"/>
<path d="M164.495 18.4067V38.5194H162.138L151.179 22.7278H150.982V38.5194H148.547V18.4067H150.904L161.903 34.2376H162.099V18.4067H164.495Z" fill="white"/>
<path d="M141.743 24.692C141.527 24.0307 141.243 23.4382 140.889 22.9145C140.542 22.3841 140.126 21.9324 139.642 21.5592C139.164 21.186 138.62 20.9012 138.011 20.7048C137.403 20.5084 136.735 20.4102 136.008 20.4102C134.816 20.4102 133.733 20.7179 132.757 21.3333C131.782 21.9487 131.006 22.8555 130.43 24.0536C129.854 25.2518 129.566 26.7216 129.566 28.4631C129.566 30.2047 129.857 31.6745 130.44 32.8726C131.022 34.0708 131.811 34.9775 132.807 35.593C133.802 36.2084 134.921 36.5161 136.165 36.5161C137.318 36.5161 138.332 36.2706 139.21 35.7796C140.093 35.282 140.781 34.5814 141.272 33.6779C141.77 32.7679 142.018 31.6974 142.018 30.4666L142.765 30.6237H136.715V28.4631H144.375V30.6237C144.375 32.2801 144.022 33.7205 143.315 34.9448C142.614 36.1691 141.645 37.1184 140.408 37.7928C139.177 38.4606 137.763 38.7945 136.165 38.7945C134.384 38.7945 132.82 38.3755 131.471 37.5375C130.129 36.6994 129.081 35.5078 128.328 33.9627C127.582 32.4176 127.209 30.5844 127.209 28.4631C127.209 26.8722 127.422 25.4416 127.847 24.1715C128.279 22.8948 128.888 21.808 129.674 20.911C130.459 20.0141 131.389 19.3266 132.463 18.8487C133.537 18.3707 134.718 18.1318 136.008 18.1318C137.069 18.1318 138.057 18.2922 138.974 18.613C139.897 18.9272 140.719 19.3757 141.439 19.9584C142.166 20.5346 142.771 21.2253 143.256 22.0306C143.74 22.8293 144.074 23.7165 144.257 24.692H141.743Z" fill="white"/>
<path d="M123.111 18.4067V38.5194H120.676V18.4067H123.111Z" fill="white"/>
<path d="M114.039 23.4349C113.921 22.4398 113.443 21.6672 112.605 21.1173C111.767 20.5673 110.739 20.2923 109.522 20.2923C108.631 20.2923 107.852 20.4364 107.184 20.7244C106.523 21.0125 106.006 21.4086 105.633 21.9127C105.266 22.4169 105.083 22.9897 105.083 23.6314C105.083 24.1682 105.21 24.6298 105.466 25.0161C105.728 25.3958 106.062 25.7133 106.467 25.9687C106.873 26.2175 107.299 26.4237 107.744 26.5874C108.189 26.7445 108.599 26.8722 108.972 26.9704L111.014 27.5204C111.538 27.6578 112.121 27.8477 112.762 28.09C113.411 28.3322 114.029 28.6628 114.619 29.0818C115.214 29.4943 115.705 30.0246 116.092 30.6728C116.478 31.321 116.671 32.1164 116.671 33.0592C116.671 34.146 116.386 35.1281 115.817 36.0054C115.254 36.8827 114.429 37.58 113.342 38.0972C112.262 38.6145 110.949 38.8731 109.404 38.8731C107.963 38.8731 106.716 38.6406 105.662 38.1758C104.615 37.711 103.79 37.0628 103.187 36.2313C102.592 35.3998 102.254 34.4341 102.176 33.3342H104.69C104.755 34.0937 105.011 34.7222 105.456 35.2198C105.908 35.7108 106.477 36.0774 107.165 36.3197C107.859 36.5554 108.605 36.6732 109.404 36.6732C110.334 36.6732 111.168 36.5226 111.908 36.2215C112.648 35.9138 113.234 35.4882 113.666 34.9448C114.098 34.3948 114.314 33.7532 114.314 33.0199C114.314 32.3521 114.128 31.8087 113.754 31.3897C113.381 30.9707 112.89 30.6302 112.281 30.3684C111.672 30.1065 111.014 29.8773 110.307 29.6809L107.833 28.9738C106.261 28.5221 105.017 27.8772 104.101 27.0391C103.184 26.2011 102.726 25.1045 102.726 23.7492C102.726 22.6231 103.03 21.641 103.639 20.803C104.254 19.9584 105.079 19.3037 106.114 18.8389C107.155 18.3675 108.317 18.1318 109.6 18.1318C110.897 18.1318 112.049 18.3642 113.057 18.829C114.065 19.2873 114.864 19.9159 115.453 20.7146C116.049 21.5134 116.363 22.4201 116.396 23.4349H114.039Z" fill="white"/>
<path d="M86.5117 38.5194V18.4067H98.6501V20.5672H88.9472V27.3631H98.0216V29.5237H88.9472V36.3589H98.8072V38.5194H86.5117Z" fill="white"/>
<path d="M72.8414 38.5194H66.6348V18.4067H73.1164C75.0675 18.4067 76.737 18.8093 78.125 19.6146C79.513 20.4134 80.5769 21.5624 81.3167 23.0617C82.0565 24.5544 82.4264 26.3418 82.4264 28.4238C82.4264 30.5189 82.0532 32.3226 81.3069 33.835C80.5605 35.3408 79.4737 36.4997 78.0464 37.3115C76.6191 38.1168 74.8841 38.5194 72.8414 38.5194ZM69.0703 36.3589H72.6843C74.3473 36.3589 75.7254 36.0381 76.8188 35.3965C77.9122 34.7549 78.7273 33.8415 79.2642 32.6565C79.801 31.4715 80.0695 30.0606 80.0695 28.4238C80.0695 26.8001 79.8043 25.4023 79.274 24.2303C78.7437 23.0519 77.9515 22.1484 76.8974 21.5198C75.8433 20.8848 74.5306 20.5672 72.9593 20.5672H69.0703V36.3589Z" fill="white"/>
</svg>
