<svg width="183" height="85" viewBox="0 0 183 85" fill="none" xmlns="http://www.w3.org/2000/svg">
<path d="M48.2237 56.3276H42.3313L48.9701 36.2148H56.4338L63.0726 56.3276H57.1802L52.7805 41.7537H52.6234L48.2237 56.3276ZM47.1238 48.3925H58.2015V52.4779H47.1238V48.3925Z" fill="#2E2E2E"/>
<path d="M37.5322 42.8537C37.4471 42.5067 37.3128 42.2023 37.1295 41.9404C36.9462 41.6719 36.7171 41.4461 36.4421 41.2628C36.1736 41.0729 35.8594 40.9321 35.4993 40.8405C35.1457 40.7423 34.7562 40.6932 34.3306 40.6932C33.414 40.6932 32.6316 40.9125 31.9835 41.3511C31.3419 41.7898 30.8508 42.4216 30.5104 43.2465C30.1765 44.0715 30.0095 45.0666 30.0095 46.232C30.0095 47.4105 30.1699 48.4188 30.4907 49.2568C30.8115 50.0948 31.2895 50.7364 31.9246 51.1816C32.5596 51.6269 33.3486 51.8495 34.2913 51.8495C35.1228 51.8495 35.8135 51.7283 36.3635 51.4861C36.92 51.2438 37.3358 50.9001 37.6107 50.4549C37.8857 50.0097 38.0232 49.4859 38.0232 48.8836L38.966 48.9818H34.3699V45.0928H43.2871V47.8819C43.2871 49.7151 42.8975 51.2831 42.1184 52.586C41.3459 53.8823 40.2787 54.8775 38.9169 55.5715C37.5616 56.2589 36.0067 56.6027 34.2521 56.6027C32.2945 56.6027 30.5759 56.1869 29.0962 55.3554C27.6165 54.524 26.461 53.3389 25.6295 51.8004C24.8046 50.2618 24.3921 48.4319 24.3921 46.3106C24.3921 44.6476 24.6442 43.1745 25.1483 41.8913C25.659 40.608 26.366 39.5245 27.2696 38.6406C28.1731 37.7502 29.2173 37.0791 30.4024 36.6274C31.5874 36.1691 32.8575 35.9399 34.2128 35.9399C35.4044 35.9399 36.5108 36.1102 37.5322 36.4506C38.5601 36.7845 39.4668 37.2625 40.2525 37.8844C41.0447 38.4999 41.683 39.2299 42.1675 40.0745C42.652 40.919 42.9466 41.8454 43.0514 42.8537H37.5322Z" fill="#2E2E2E"/>
<path d="M8.21021 56.3276V36.2148H16.931C18.463 36.2148 19.7495 36.4211 20.7905 36.8335C21.838 37.246 22.627 37.8287 23.1573 38.5816C23.6942 39.3345 23.9626 40.2217 23.9626 41.243C23.9626 41.9829 23.7989 42.6572 23.4716 43.2661C23.1507 43.875 22.699 44.3857 22.1163 44.7981C21.5336 45.204 20.8527 45.4856 20.0736 45.6427V45.8391C20.9378 45.8719 21.7235 46.0912 22.4306 46.4971C23.1377 46.8965 23.7007 47.4497 24.1197 48.1568C24.5387 48.8573 24.7482 49.6823 24.7482 50.6316C24.7482 51.7315 24.4602 52.7103 23.884 53.568C23.3144 54.4257 22.5026 55.1 21.4485 55.5911C20.3944 56.0821 19.1374 56.3276 17.6773 56.3276H8.21021ZM13.6705 51.9672H16.2239C17.1405 51.9672 17.8279 51.797 18.2862 51.4566C18.7445 51.1096 18.9737 50.5989 18.9737 49.9245C18.9737 49.4531 18.8657 49.0538 18.6496 48.7264C18.4335 48.399 18.1258 48.1503 17.7265 47.98C17.3336 47.8098 16.859 47.7247 16.3025 47.7247H13.6705V51.9672ZM13.6705 44.3464H15.9096C16.3876 44.3464 16.8099 44.2711 17.1765 44.1205C17.5431 43.9699 17.8279 43.7539 18.0309 43.4723C18.2404 43.1843 18.3452 42.834 18.3452 42.4215C18.3452 41.7995 18.1226 41.3249 17.6773 40.9975C17.2321 40.6636 16.6691 40.4967 15.9882 40.4967H13.6705V44.3464Z" fill="#2E2E2E"/>
<path fill-rule="evenodd" clip-rule="evenodd" d="M0 17.8081H30.6181V32.6233H28.6427V19.7835H1.97536L1.97536 65.2168H19.7536V60.2784H21.729V67.1921H0L0 17.8081Z" fill="#2E2E2E"/>
<path d="M180.368 41.2431C180.25 40.2479 179.772 39.4754 178.934 38.9254C178.096 38.3755 177.068 38.1005 175.851 38.1005C174.96 38.1005 174.181 38.2445 173.513 38.5326C172.852 38.8207 172.335 39.2168 171.962 39.7209C171.595 40.225 171.412 40.7979 171.412 41.4395C171.412 41.9764 171.539 42.438 171.795 42.8242C172.056 43.204 172.39 43.5215 172.796 43.7768C173.202 44.0256 173.628 44.2319 174.073 44.3956C174.518 44.5527 174.927 44.6804 175.301 44.7786L177.343 45.3285C177.867 45.466 178.45 45.6559 179.091 45.8981C179.74 46.1404 180.358 46.471 180.947 46.89C181.543 47.3025 182.034 47.8328 182.421 48.481C182.807 49.1291 183 49.9246 183 50.8674C183 51.9542 182.715 52.9363 182.146 53.8136C181.583 54.6909 180.758 55.3882 179.671 55.9054C178.59 56.4226 177.278 56.6812 175.733 56.6812C174.292 56.6812 173.045 56.4488 171.991 55.984C170.943 55.5191 170.119 54.871 169.516 54.0395C168.92 53.208 168.583 52.2423 168.505 51.1424H171.019C171.084 51.9018 171.34 52.5304 171.785 53.0279C172.236 53.519 172.806 53.8856 173.494 54.1279C174.188 54.3636 174.934 54.4814 175.733 54.4814C176.662 54.4814 177.497 54.3308 178.237 54.0296C178.977 53.7219 179.563 53.2964 179.995 52.753C180.427 52.203 180.643 51.5614 180.643 50.8281C180.643 50.1603 180.456 49.6169 180.083 49.1979C179.71 48.7789 179.219 48.4384 178.61 48.1765C178.001 47.9146 177.343 47.6855 176.636 47.4891L174.161 46.782C172.59 46.3302 171.346 45.6853 170.429 44.8473C169.513 44.0093 169.055 42.9126 169.055 41.5574C169.055 40.4313 169.359 39.4492 169.968 38.6112C170.583 37.7666 171.408 37.1119 172.443 36.647C173.484 36.1756 174.646 35.9399 175.929 35.9399C177.225 35.9399 178.378 36.1724 179.386 36.6372C180.394 37.0955 181.193 37.724 181.782 38.5228C182.378 39.3215 182.692 40.2283 182.725 41.2431H180.368Z" fill="#2E2E2E"/>
<path d="M164.495 36.2148V56.3276H162.138L151.179 40.5359H150.982V56.3276H148.547V36.2148H150.904L161.903 52.0458H162.099V36.2148H164.495Z" fill="#2E2E2E"/>
<path d="M141.743 42.5002C141.527 41.8389 141.243 41.2464 140.889 40.7226C140.542 40.1923 140.126 39.7405 139.642 39.3674C139.164 38.9942 138.62 38.7094 138.011 38.513C137.403 38.3165 136.735 38.2183 136.008 38.2183C134.816 38.2183 133.733 38.5261 132.757 39.1415C131.782 39.7569 131.006 40.6637 130.43 41.8618C129.854 43.0599 129.566 44.5298 129.566 46.2713C129.566 48.0128 129.857 49.4827 130.44 50.6808C131.022 51.8789 131.811 52.7857 132.807 53.4011C133.802 54.0166 134.921 54.3243 136.165 54.3243C137.318 54.3243 138.332 54.0788 139.21 53.5877C140.093 53.0901 140.781 52.3896 141.272 51.4861C141.77 50.576 142.018 49.5056 142.018 48.2747L142.765 48.4319H136.715V46.2713H144.375V48.4319C144.375 50.0883 144.022 51.5286 143.315 52.753C142.614 53.9773 141.645 54.9266 140.408 55.601C139.177 56.2688 137.763 56.6027 136.165 56.6027C134.384 56.6027 132.82 56.1837 131.471 55.3456C130.129 54.5076 129.081 53.316 128.328 51.7709C127.582 50.2258 127.209 48.3926 127.209 46.2713C127.209 44.6804 127.422 43.2498 127.847 41.9797C128.279 40.703 128.888 39.6162 129.674 38.7192C130.459 37.8222 131.389 37.1348 132.463 36.6569C133.537 36.1789 134.718 35.9399 136.008 35.9399C137.069 35.9399 138.057 36.1003 138.974 36.4212C139.897 36.7354 140.719 37.1839 141.439 37.7666C142.166 38.3427 142.771 39.0335 143.256 39.8388C143.74 40.6375 144.074 41.5246 144.257 42.5002H141.743Z" fill="#2E2E2E"/>
<path d="M123.111 36.2148V56.3276H120.676V36.2148H123.111Z" fill="#2E2E2E"/>
<path d="M114.039 41.2431C113.921 40.2479 113.443 39.4754 112.605 38.9254C111.767 38.3755 110.739 38.1005 109.522 38.1005C108.631 38.1005 107.852 38.2445 107.184 38.5326C106.523 38.8207 106.006 39.2168 105.633 39.7209C105.266 40.225 105.083 40.7979 105.083 41.4395C105.083 41.9764 105.21 42.438 105.466 42.8242C105.728 43.204 106.062 43.5215 106.467 43.7768C106.873 44.0256 107.299 44.2319 107.744 44.3956C108.189 44.5527 108.599 44.6804 108.972 44.7786L111.014 45.3285C111.538 45.466 112.121 45.6559 112.762 45.8981C113.411 46.1404 114.029 46.471 114.619 46.89C115.214 47.3025 115.705 47.8328 116.092 48.481C116.478 49.1291 116.671 49.9246 116.671 50.8674C116.671 51.9542 116.386 52.9363 115.817 53.8136C115.254 54.6909 114.429 55.3882 113.342 55.9054C112.262 56.4226 110.949 56.6812 109.404 56.6812C107.963 56.6812 106.716 56.4488 105.662 55.984C104.615 55.5191 103.79 54.871 103.187 54.0395C102.592 53.208 102.254 52.2423 102.176 51.1424H104.69C104.755 51.9018 105.011 52.5304 105.456 53.0279C105.908 53.519 106.477 53.8856 107.165 54.1279C107.859 54.3636 108.605 54.4814 109.404 54.4814C110.334 54.4814 111.168 54.3308 111.908 54.0296C112.648 53.7219 113.234 53.2964 113.666 52.753C114.098 52.203 114.314 51.5614 114.314 50.8281C114.314 50.1603 114.128 49.6169 113.754 49.1979C113.381 48.7789 112.89 48.4384 112.281 48.1765C111.672 47.9146 111.014 47.6855 110.307 47.4891L107.833 46.782C106.261 46.3302 105.017 45.6853 104.101 44.8473C103.184 44.0093 102.726 42.9126 102.726 41.5574C102.726 40.4313 103.03 39.4492 103.639 38.6112C104.254 37.7666 105.079 37.1119 106.114 36.647C107.155 36.1756 108.317 35.9399 109.6 35.9399C110.897 35.9399 112.049 36.1724 113.057 36.6372C114.065 37.0955 114.864 37.724 115.453 38.5228C116.049 39.3215 116.363 40.2283 116.396 41.2431H114.039Z" fill="#2E2E2E"/>
<path d="M86.5117 56.3276V36.2148H98.6501V38.3754H88.9472V45.1713H98.0216V47.3319H88.9472V54.1671H98.8072V56.3276H86.5117Z" fill="#2E2E2E"/>
<path d="M72.8414 56.3276H66.6348V36.2148H73.1164C75.0675 36.2148 76.737 36.6175 78.125 37.4228C79.513 38.2215 80.5769 39.3706 81.3167 40.8699C82.0565 42.3626 82.4264 44.15 82.4264 46.2319C82.4264 48.327 82.0532 50.1308 81.3069 51.6431C80.5605 53.149 79.4737 54.3078 78.0464 55.1197C76.6191 55.925 74.8841 56.3276 72.8414 56.3276ZM69.0703 54.1671H72.6843C74.3473 54.1671 75.7254 53.8463 76.8188 53.2046C77.9122 52.563 78.7273 51.6497 79.2642 50.4647C79.801 49.2796 80.0695 47.8687 80.0695 46.2319C80.0695 44.6083 79.8043 43.2104 79.274 42.0385C78.7437 40.86 77.9515 39.9565 76.8974 39.328C75.8433 38.6929 74.5306 38.3754 72.9593 38.3754H69.0703V54.1671Z" fill="#2E2E2E"/>
</svg>
