<svg width="32" height="33" viewBox="0 0 32 33" fill="none" xmlns="http://www.w3.org/2000/svg">
<path d="M8.224 25.632C8.55401 24.5336 9.22929 23.5709 10.1497 22.8866C11.07 22.2024 12.1865 21.833 13.3333 21.8333H18.6667C19.815 21.8329 20.9328 22.2032 21.8538 22.889C22.7749 23.5749 23.45 24.5397 23.7787 25.64M4 16.5C4 18.0759 4.31039 19.6363 4.91345 21.0922C5.5165 22.5481 6.40042 23.871 7.51472 24.9853C8.62902 26.0996 9.95189 26.9835 11.4078 27.5866C12.8637 28.1896 14.4241 28.5 16 28.5C17.5759 28.5 19.1363 28.1896 20.5922 27.5866C22.0481 26.9835 23.371 26.0996 24.4853 24.9853C25.5996 23.871 26.4835 22.5481 27.0866 21.0922C27.6896 19.6363 28 18.0759 28 16.5C28 14.9241 27.6896 13.3637 27.0866 11.9078C26.4835 10.4519 25.5996 9.12902 24.4853 8.01472C23.371 6.90042 22.0481 6.0165 20.5922 5.41345C19.1363 4.81039 17.5759 4.5 16 4.5C14.4241 4.5 12.8637 4.81039 11.4078 5.41345C9.95189 6.0165 8.62902 6.90042 7.51472 8.01472C6.40042 9.12902 5.5165 10.4519 4.91345 11.9078C4.31039 13.3637 4 14.9241 4 16.5ZM12 13.8333C12 14.8942 12.4214 15.9116 13.1716 16.6618C13.9217 17.4119 14.9391 17.8333 16 17.8333C17.0609 17.8333 18.0783 17.4119 18.8284 16.6618C19.5786 15.9116 20 14.8942 20 13.8333C20 12.7725 19.5786 11.7551 18.8284 11.0049C18.0783 10.2548 17.0609 9.83333 16 9.83333C14.9391 9.83333 13.9217 10.2548 13.1716 11.0049C12.4214 11.7551 12 12.7725 12 13.8333Z" stroke="#2E2E2E" stroke-width="2" stroke-linecap="round" stroke-linejoin="round"/>
</svg>
